<svg width="273" height="379" viewBox="0 0 273 379" fill="none" xmlns="http://www.w3.org/2000/svg">
<g filter="url(#filter0_f_47_115)">
<path d="M95.6421 228.581C99.4451 226.934 103.76 226.934 107.563 228.581L179.165 259.586C184.653 261.962 188.205 267.371 188.205 273.351V328.649C188.205 334.629 184.653 340.038 179.165 342.414L107.563 373.419C103.76 375.066 99.4451 375.066 95.6421 373.419L24.0396 342.414C18.552 340.038 15 334.629 15 328.649V273.351C15 267.371 18.552 261.962 24.0396 259.586L95.6421 228.581Z" fill="#FF944D"/>
</g>
<g filter="url(#filter1_d_47_115)">
<path d="M109.977 279.432L96.6673 283.485L85.0882 288.251L81.8487 289.048C81.0237 289.78 80.1587 290.521 79.2231 291.272C78.1969 292.097 77.2412 292.848 76.5067 293.392C75.6919 293.992 74.4847 295.118 73.8711 295.831C72.9556 296.9 72.2313 298.035 71.9194 298.908C71.366 300.484 71.6378 302.079 72.7041 303.552C74.0723 305.428 76.7986 307.342 79.9775 308.646C81.5973 309.312 84.3235 310.165 86.3757 310.644C89.786 311.451 96.3855 312.323 100.017 312.455C100.751 312.483 101.737 312.483 101.778 312.455C101.858 312.407 102.421 311.404 103.075 310.156C105.309 305.906 106.918 301.919 107.794 298.514C108.317 296.45 108.729 293.701 109.001 290.446C109.071 289.536 109.101 286.487 109.041 285.455C108.95 283.767 108.789 282.397 108.538 281.056C108.498 280.858 108.488 280.68 108.508 280.671C108.548 280.643 108.669 280.605 110.308 280.164L109.977 279.433V279.432H109.977V279.432ZM106.939 281.093C107.059 281.093 107.381 283.973 107.462 285.793C107.482 286.178 107.472 286.431 107.452 286.431C107.371 286.431 105.751 285.54 104.595 284.864C103.589 284.273 101.677 283.091 101.376 282.866C101.275 282.8 101.285 282.791 102.11 282.528C103.508 282.087 106.828 281.093 106.939 281.093ZM100.158 283.176C100.249 283.176 100.48 283.297 101.033 283.616C103.106 284.827 105.923 286.29 107.13 286.778C107.502 286.928 107.542 286.872 106.687 287.416C104.856 288.579 102.572 289.724 99.7756 290.878C99.2828 291.084 98.8704 291.243 98.8603 291.243C98.8403 291.243 98.9005 291.009 98.9809 290.727C99.6549 288.391 100.037 286.027 100.057 284.132C100.068 283.194 100.068 283.194 100.158 283.166C100.138 283.176 100.148 283.176 100.158 283.176ZM98.7598 283.673C98.82 283.729 98.7798 285.83 98.6993 286.403C98.5182 287.772 98.2366 289.048 97.774 290.484C97.6633 290.83 97.5625 291.121 97.5426 291.14C97.5021 291.187 96.1239 289.93 95.6712 289.442C94.8865 288.598 94.273 287.753 93.8203 286.928C93.5889 286.506 93.2268 285.68 93.2569 285.652C93.4178 285.549 98.7195 283.635 98.7598 283.673ZM92.1804 286.084C92.1904 286.084 92.2004 286.084 92.2106 286.093C92.2307 286.112 92.3012 286.262 92.3616 286.431C92.6834 287.247 93.4076 288.448 94.0315 289.217C94.7156 290.061 95.611 290.962 96.3553 291.553C96.5968 291.741 96.818 291.919 96.8481 291.947C96.9086 292.003 96.9287 291.994 95.2888 292.575C93.3877 293.251 91.3152 293.926 88.941 294.639C88.3738 294.81 87.8072 294.982 87.2411 295.155C87.1504 295.183 87.1806 295.136 87.4422 294.752C88.6191 293.035 90.4098 289.667 91.4159 287.284C91.5869 286.872 91.7579 286.459 91.7881 286.365C91.8284 286.234 91.8786 286.187 92.0093 286.121C92.0798 286.102 92.1503 286.084 92.1804 286.084ZM90.1685 286.862C90.1987 286.881 89.6856 287.885 89.1826 288.804C88.2067 290.577 87.1403 292.322 85.7118 294.442C85.4704 294.808 85.2391 295.146 85.2089 295.184C85.1586 295.249 85.1384 295.23 84.9775 294.94C84.6354 294.311 84.3536 293.504 84.2028 292.763C84.0518 292.031 84.0821 290.756 84.2532 289.968C84.3838 289.386 84.3739 289.395 84.6756 289.255C85.9633 288.645 90.1283 286.825 90.1685 286.862ZM107.522 287.519V287.913C107.522 290.005 107.281 292.876 106.928 294.968C106.868 295.334 106.818 295.634 106.808 295.643C106.808 295.643 106.516 295.568 106.174 295.474C104.665 295.033 103.025 294.386 101.546 293.626C100.57 293.129 99.152 292.313 99.1923 292.275C99.2022 292.266 99.6248 292.06 100.118 291.816C102.09 290.859 103.981 289.827 105.621 288.804C106.234 288.42 107.16 287.801 107.361 287.632L107.522 287.519ZM82.573 290.296C82.6132 290.296 82.6032 290.371 82.5428 290.709C82.5026 290.953 82.4523 291.403 82.4323 291.712C82.3517 293.082 82.5933 294.095 83.3176 295.484C83.5188 295.868 83.6798 296.187 83.6696 296.197C83.5991 296.253 76.9395 298.073 74.8469 298.608C74.2232 298.767 73.68 298.908 73.6396 298.917C73.5693 298.936 73.5592 298.927 73.5894 298.767C73.8207 297.388 74.9475 295.587 76.5168 294.067C77.5631 293.054 78.3981 292.463 79.8266 291.703C80.8528 291.159 82.4322 290.343 82.5529 290.305C82.553 290.296 82.563 290.296 82.573 290.296ZM98.2668 292.913C98.2768 292.904 98.5182 293.026 98.81 293.185C100.963 294.349 103.961 295.427 106.516 295.981L106.747 296.028L106.425 296.197C105.087 296.891 100.691 298.598 96.1944 300.165C95.5404 300.39 94.8967 300.615 94.7758 300.662C94.655 300.709 94.5444 300.737 94.5444 300.728C94.5444 300.718 94.7256 300.39 94.9568 299.987C96.2143 297.791 97.482 295.118 98.1258 293.26C98.2065 293.082 98.2566 292.923 98.2668 292.913ZM96.6673 293.401C96.6775 293.411 96.5969 293.607 96.4962 293.833C95.621 295.812 94.474 297.97 93.0053 300.39C92.6332 301.009 92.3213 301.507 92.3111 301.507C92.3012 301.507 91.9993 301.338 91.6371 301.131C89.5043 299.912 87.6131 298.411 86.3758 296.957L86.1946 296.75L87.11 296.516C90.3896 295.681 93.1762 294.78 95.9428 293.673C96.3352 293.523 96.6572 293.401 96.6673 293.401ZM106.607 296.638C106.617 296.853 106.104 298.786 105.681 300.184C105.329 301.356 105.027 302.276 104.474 303.899C104.232 304.612 104.021 305.203 104.011 305.203C104.001 305.203 103.941 305.193 103.88 305.175C100.893 304.668 98.2165 303.964 95.7015 303.026C94.9972 302.763 93.9912 302.341 93.9309 302.294C93.9108 302.275 94.5145 302.013 95.279 301.703C99.8563 299.836 104.605 297.716 106.234 296.806C106.425 296.694 106.576 296.638 106.607 296.638ZM83.6596 297.369C83.6797 297.388 82.4021 299.105 80.6113 301.441C79.9876 302.257 79.2633 303.214 78.9917 303.57C78.7201 303.927 78.3077 304.49 78.0763 304.827L77.6536 305.437L77.2008 305.081C76.6676 304.668 75.7422 303.786 75.3298 303.298C74.4645 302.295 73.8812 301.234 73.6498 300.268C73.5391 299.818 73.5391 299.593 73.6395 299.565C73.7904 299.527 76.4765 298.936 78.9917 298.392C80.39 298.092 82.0096 297.735 82.5931 297.604C83.1766 297.472 83.6496 297.369 83.6596 297.369ZM84.9472 297.829L85.269 298.167C86.7179 299.677 88.1967 300.794 89.9873 301.769C90.3093 301.938 90.5507 302.088 90.5305 302.098C90.4603 302.144 84.3134 304.18 81.4664 305.099C79.867 305.625 78.549 306.047 78.5391 306.047C78.529 306.047 78.4384 305.991 78.3377 305.925L78.1567 305.803L78.4484 305.409C79.394 304.133 80.5813 302.735 83.1667 299.827L84.9472 297.829ZM92.9753 303.186C92.9852 303.176 93.4278 303.326 93.971 303.514C95.279 303.974 96.315 304.264 97.7034 304.593C99.4137 304.996 101.888 305.39 103.347 305.503C103.569 305.522 103.689 305.54 103.649 305.569C103.578 305.606 102.1 306.066 101.013 306.385C99.2828 306.891 94.0013 308.345 89.6956 309.499C88.9009 309.715 88.2167 309.893 88.1765 309.903C88.076 309.921 87.7439 309.837 87.7439 309.799C87.7439 309.781 87.9854 309.49 88.2771 309.171C89.7257 307.557 91.1644 305.756 92.3616 304.049C92.6935 303.58 92.9753 303.195 92.9753 303.186ZM91.2045 303.233C91.2146 303.242 90.5004 304.311 89.2531 306.15C88.7198 306.929 88.1262 307.811 87.9149 308.12C87.7137 308.42 87.4119 308.89 87.241 309.152L86.9492 309.631L86.7983 309.593C86.436 309.499 83.8909 308.664 83.2168 308.411C82.3818 308.101 81.5167 307.726 80.8728 307.407C80.0681 307.004 79.0621 306.403 79.1425 306.385C79.1626 306.375 80.5409 306.028 82.2007 305.606C86.6071 304.49 89.0516 303.842 90.6513 303.373C90.9431 303.289 91.1945 303.223 91.2045 303.233ZM103.729 305.972H103.739C103.78 306.066 102.15 310.287 101.556 311.619C101.426 311.92 101.376 311.995 101.305 311.985C101.134 311.976 98.7699 311.666 97.3311 311.469C94.8263 311.113 90.6211 310.428 89.5649 310.203L89.3234 310.156L90.8222 309.837C94.0415 309.161 95.5908 308.796 97.1601 308.345C99.142 307.782 101.104 307.079 103.086 306.216C103.397 306.084 103.659 305.981 103.729 305.972Z" fill="url(#paint0_linear_47_115)"/>
<path d="M96.2548 250.5C96.0335 250.472 92.462 251.673 90.1584 252.546C87.0497 253.728 84.6354 254.854 83.1465 255.829C82.5933 256.195 81.899 256.842 81.7885 257.096C81.7483 257.189 81.728 257.302 81.728 257.414L83.0761 258.606L86.2852 259.563L93.9209 260.839L102.653 262.237L102.744 261.533C102.713 261.533 102.693 261.524 102.663 261.524L101.516 261.355L101.285 260.97C100.098 259.019 98.79 256.598 98.0254 254.966C97.432 253.7 96.8686 252.236 96.5566 251.185C96.3856 250.548 96.3655 250.51 96.255 250.501V250.5H96.2548V250.5ZM96.0936 250.979H96.104C96.1139 250.988 96.1541 251.251 96.1944 251.561C96.3653 252.874 96.6774 254.14 97.1703 255.51C97.5424 256.542 97.5424 256.486 97.1099 256.364C96.0838 256.101 91.4864 255.36 88.1565 254.929C87.6233 254.863 87.1706 254.797 87.1706 254.788C87.1303 254.75 89.5748 253.559 90.6513 253.09C92.0295 252.499 95.8121 251.026 96.0936 250.979ZM86.3958 255.182L86.7883 255.304C88.9209 255.979 94.2828 256.936 97.2406 257.161C97.5725 257.189 97.8543 257.218 97.8642 257.218C97.8742 257.227 97.5927 257.368 97.2304 257.527C95.8021 258.193 94.2326 259.009 93.1461 259.638C92.8243 259.825 92.5324 259.976 92.4923 259.976C92.452 259.976 92.2408 259.938 92.0195 259.91L91.6171 259.854L90.6112 258.934C88.8406 257.33 87.4523 256.092 86.9191 255.623L86.3958 255.182ZM85.9935 255.473L87.412 257.124C88.1865 258.034 88.9712 258.925 89.1424 259.122C89.3133 259.319 89.4542 259.478 89.4442 259.488C89.4039 259.516 87.392 259.15 86.3255 258.925C85.229 258.69 84.7763 258.578 84.1023 258.381L83.5489 258.212V258.081C83.5589 257.452 84.4141 256.514 85.8627 255.557L85.9935 255.473ZM98.0454 257.724C98.0858 257.724 98.1359 257.809 98.2566 258.062C98.5987 258.765 99.6652 260.66 99.9265 261.026C100.007 261.148 100.148 261.158 98.7296 260.942C95.3193 260.426 94.2226 260.257 94.2226 260.238C94.2226 260.229 94.3232 260.163 94.454 260.098C95.5104 259.554 96.5767 258.859 97.5224 258.118C97.7538 257.94 97.965 257.771 98.0052 257.743C98.0152 257.724 98.0354 257.715 98.0454 257.724Z" fill="url(#paint1_linear_47_115)"/>
<path d="M81.8586 256.964C81.8586 256.964 81.6374 257.293 81.8486 257.781C81.9795 258.081 82.3617 258.446 82.7942 258.822C82.7942 258.822 87.2709 262.893 87.8142 263.475C90.2889 266.139 91.3654 268.766 91.466 272.387C91.5264 274.714 91.0534 276.759 89.8765 279.132C87.784 283.391 83.3675 288.091 76.5569 293.307L77.553 292.998C78.1968 292.547 79.0721 292.069 81.1242 291.018C85.8625 288.598 91.1943 286.375 97.7335 284.086C107.149 280.783 122.632 276.918 131.445 275.661L132.36 275.53L132.219 275.323C131.415 274.16 130.861 273.438 130.197 272.668C128.266 270.436 125.922 268.625 123.055 267.124C119.111 265.07 114.01 263.466 107.552 262.274C106.335 262.049 103.659 261.617 101.486 261.308C96.8782 260.642 93.9004 260.182 90.6209 259.657C89.444 259.469 87.6833 259.188 86.5163 258.953C85.9128 258.831 84.756 258.578 83.8505 258.287C83.1262 258.024 82.0799 257.762 81.8586 256.964ZM84.4542 259.31C84.4642 259.3 84.6251 259.356 84.8365 259.422C85.2187 259.544 85.7116 259.685 86.2953 259.835C86.7368 259.948 87.1795 260.058 87.6232 260.163C88.2268 260.304 88.7297 260.435 88.7397 260.435C88.8103 260.501 89.8264 263.531 90.1684 264.694C90.299 265.135 90.3998 265.51 90.3897 265.51C90.3794 265.52 90.2689 265.36 90.1382 265.145C88.9611 263.212 87.1 261.251 84.9471 259.675C84.6655 259.488 84.4542 259.319 84.4542 259.31ZM89.4038 260.585C89.4541 260.585 89.6754 260.614 89.9469 260.67C91.6571 261.026 94.7255 261.57 96.6872 261.88C97.0192 261.927 97.2808 261.983 97.2808 262.002C97.2808 262.021 97.16 262.086 97.009 262.162C96.6772 262.321 95.3391 263.062 94.8966 263.344C93.7798 264.038 92.7739 264.788 92.0495 265.464C91.7578 265.736 91.5062 265.961 91.5062 265.961C91.5062 265.961 91.446 265.801 91.3955 265.604C91.0336 264.3 90.2789 262.368 89.5948 261.008C89.4841 260.792 89.3935 260.595 89.3935 260.576C89.3935 260.595 89.3935 260.585 89.4038 260.585ZM98.1157 262.133C98.1761 262.152 98.2767 262.471 98.4778 263.175C98.8501 264.535 99.0212 266.055 98.9608 267.471C98.9406 267.865 98.9205 268.231 98.9003 268.278L98.8702 268.372L98.3471 268.212C97.2707 267.893 95.5203 267.415 94.0214 267.021C93.1661 266.805 92.4722 266.608 92.4722 266.589C92.4722 266.533 93.7197 265.37 94.2528 264.929C95.2687 264.094 98.0251 262.105 98.1157 262.133ZM98.8099 262.227C98.8401 262.199 102.975 262.865 104.856 263.203C106.254 263.456 108.287 263.85 108.407 263.897C108.468 263.916 108.256 264.028 107.582 264.31C104.926 265.426 102.955 266.43 100.993 267.65C100.48 267.968 100.047 268.231 100.037 268.231C100.027 268.231 100.017 267.959 100.017 267.631C100.017 265.848 99.6349 264.047 98.9305 262.527C98.8601 262.377 98.7998 262.237 98.8099 262.227ZM109.504 264.197C109.534 264.225 109.403 264.985 109.282 265.436C108.92 266.833 107.944 268.907 106.747 270.858C106.536 271.205 106.345 271.487 106.325 271.496C106.305 271.505 106.033 271.364 105.721 271.196C104.554 270.558 103.226 269.957 101.778 269.394C101.375 269.235 101.023 269.104 101.013 269.085C100.942 269.029 104.182 267.03 105.892 266.073C107.25 265.304 109.463 264.16 109.504 264.197ZM110.268 264.31C110.359 264.31 112.19 264.779 113.145 265.042C115.51 265.698 118.226 266.627 119.996 267.377L120.731 267.687L120.218 267.8C115.892 268.728 112.19 269.798 108.618 271.149C108.327 271.261 108.065 271.355 108.045 271.355C108.025 271.355 108.126 271.139 108.256 270.877C109.333 268.747 110.027 266.524 110.198 264.629C110.208 264.45 110.238 264.31 110.268 264.31ZM92.0395 268.212C92.0696 268.184 93.468 268.494 94.2225 268.691C95.3693 268.991 97.8038 269.751 97.8038 269.807C97.8038 269.817 97.5323 270.032 97.2104 270.295C95.8926 271.318 94.6249 272.396 93.1057 273.766C92.653 274.17 92.2708 274.498 92.2508 274.498C92.2306 274.498 92.2207 274.441 92.2306 274.366C92.4619 272.79 92.4118 270.764 92.0898 268.71C92.0595 268.447 92.0294 268.222 92.0395 268.212ZM121.425 268.241C121.445 268.259 120.781 269.235 120.359 269.788C119.755 270.595 118.869 271.665 116.868 274.01C115.811 275.248 114.624 276.646 114.232 277.115C113.829 277.584 113.498 277.978 113.487 277.978C113.477 277.978 113.347 277.809 113.206 277.603C112.079 276.027 110.731 274.648 109.131 273.41C108.83 273.175 108.498 272.922 108.387 272.847C108.276 272.772 108.186 272.697 108.186 272.687C108.186 272.659 109.896 271.974 111.194 271.486C113.467 270.623 116.566 269.591 118.89 268.925C120.107 268.569 121.405 268.222 121.425 268.241ZM122.2 268.428C122.24 268.419 122.481 268.531 122.773 268.691C125.218 269.995 127.612 271.674 129.503 273.4C130.036 273.888 131.354 275.164 131.334 275.173C131.334 275.173 130.871 275.211 130.328 275.248C126.093 275.549 120.671 276.383 115.459 277.556C115.107 277.631 114.795 277.697 114.775 277.697C114.755 277.697 115.148 277.331 115.641 276.89C118.699 274.141 120.097 272.406 121.747 269.31C121.978 268.85 122.179 268.456 122.2 268.428C122.189 268.428 122.189 268.428 122.2 268.428ZM99.7957 270.567C99.9366 270.595 101.244 271.168 102.23 271.627C103.136 272.049 104.494 272.725 104.564 272.781C104.574 272.79 104.091 273.025 103.498 273.297C101.607 274.179 99.987 275.014 98.2968 275.971C97.8139 276.243 97.4116 276.468 97.4015 276.468C97.3613 276.468 97.3713 276.43 97.6429 275.971C98.5484 274.432 99.2726 272.593 99.6852 270.802C99.7253 270.661 99.7656 270.567 99.7957 270.567ZM98.4879 270.792C98.5181 270.82 98.1761 271.974 97.9649 272.603C97.5523 273.794 96.8582 275.286 96.1843 276.412C96.0231 276.674 95.7817 277.059 95.651 277.275L95.3995 277.65L94.8362 277.143C94.1823 276.552 93.649 276.186 92.9651 275.858C92.6933 275.727 92.4821 275.614 92.4821 275.595C92.4821 275.52 94.2024 274.066 95.5202 273.016C96.4658 272.256 98.4578 270.764 98.4879 270.792ZM106.486 273.86L106.979 274.16C108.105 274.845 109.433 275.755 110.449 276.552C111.023 276.993 112.129 277.922 112.351 278.147L112.471 278.269L111.657 278.485C107.049 279.676 103.488 280.736 99.333 282.162C98.8702 282.322 98.4778 282.453 98.4476 282.453C98.3874 282.453 98.337 282.5 99.3733 281.609C102.029 279.329 104.383 276.815 106.134 274.366L106.486 273.86ZM104.383 274.348C104.403 274.366 103.025 276.177 102.2 277.2C101.214 278.419 99.4637 280.464 98.2565 281.796C97.7536 282.35 97.3211 282.81 97.3009 282.819C97.2707 282.828 97.2606 282.688 97.2606 282.472C97.2606 281.337 96.9488 280.126 96.4055 279.095C96.1741 278.663 96.1339 278.56 96.1843 278.513C96.3754 278.353 99.3029 276.796 101.154 275.867C102.401 275.248 104.353 274.329 104.383 274.348ZM91.6672 277.256C91.6974 277.256 91.9288 277.368 92.1904 277.5C92.8342 277.828 93.4077 278.194 93.9207 278.588C93.9407 278.607 93.6793 278.804 93.3372 279.038C92.3815 279.676 90.9329 280.699 90.088 281.327C89.2025 281.984 89.1725 282.003 89.273 281.862C89.937 280.915 90.2688 280.38 90.6211 279.695C90.9329 279.085 91.2447 278.363 91.466 277.734C91.5465 277.462 91.6471 277.256 91.6672 277.256ZM95.0575 279.733C95.1077 279.723 95.1682 279.808 95.4397 280.183C96.0131 280.98 96.4558 282.05 96.5666 282.913L96.5865 283.101L95.2085 283.598C92.7436 284.489 90.4702 285.371 88.9308 286.027C88.4983 286.215 87.7438 286.553 87.2509 286.778C86.7579 287.012 86.3556 287.191 86.3556 287.181C86.3556 287.172 86.6673 286.956 87.0496 286.693C90.0578 284.658 92.6632 282.425 94.6148 280.192C94.8261 279.958 95.0174 279.742 95.0373 279.733L95.0575 279.733ZM93.4983 280.089C93.5385 280.127 92.3917 281.337 91.607 282.078C89.6654 283.926 87.7439 285.371 85.3596 286.778C85.0578 286.956 84.7862 287.116 84.756 287.134C84.6855 287.172 84.776 287.078 85.8223 286.018C86.4864 285.352 86.9893 284.789 87.5627 284.095C87.945 283.635 88.0155 283.57 88.5689 283.204C90.0477 282.209 93.458 280.051 93.4983 280.089Z" fill="url(#paint2_radial_47_115)"/>
<path d="M63.253 320.12C63.0667 320.12 62.8803 320.135 62.6957 320.135C58.9323 320.304 56.3941 321.7 54.9101 324.426C53.6408 326.892 53.7794 330.115 54.9243 332.596C56.2557 335.02 58.4071 336.299 61.998 336.783C62.7578 336.888 63.2673 337.239 64.7388 338.687L66.5495 340.476H69.8334L67.6498 338.62C66.4427 337.603 65.4664 336.717 65.4664 336.639C65.4664 336.561 65.9282 336.391 66.4871 336.247C68.3297 335.777 69.8598 334.577 70.9302 332.738C71.7964 331.261 71.9208 330.805 72.045 328.967C72.3698 323.499 68.9492 320.079 63.2529 320.118L63.253 320.12ZM66.1322 334.422C64.5346 335.074 62.2148 335.204 60.7005 334.736C59.1348 334.251 57.6189 332.88 56.9372 331.329C56.1793 329.632 56.2875 326.502 57.1538 325.092C58.5472 322.848 60.3899 321.815 63.0826 321.815C67.0765 321.815 69.3486 323.877 69.6451 327.753C69.8795 330.988 68.5942 333.415 66.1339 334.42L66.1322 334.422ZM122.861 324.791C121.483 324.791 120.429 325.261 119.719 326.187L119.161 326.921V325.014H116.777V336.446H119.16V332.792C119.16 329.451 119.209 329.06 119.763 328.146C120.526 326.892 121.84 326.267 123.109 326.566L123.961 326.776V324.794H122.861V324.791ZM108.855 324.687C108.388 324.687 107.893 324.739 107.4 324.83C104.21 325.534 102.411 328.107 102.521 330.756C102.521 332.973 103.033 334.082 104.302 335.245C106.903 337.043 109.255 337.187 112.428 336.222C112.97 336.027 113.559 335.803 113.559 335.803V334.004L112.428 334.498C109.86 335.441 107.925 335.441 106.375 334.33C105.387 333.482 104.952 332.464 104.751 331.303H114.363V329.762C114.363 326.62 112.119 324.636 108.853 324.687H108.855ZM104.968 329.699C104.968 329.699 105.323 327.739 106.64 326.97C107.274 326.593 108.001 326.41 108.713 326.41C109.427 326.41 110.138 326.605 110.726 326.984C111.933 327.766 112.136 329.684 112.136 329.684H104.968L104.968 329.699ZM47.4955 327.638C44.911 326.318 43.7643 325.366 43.9045 324.244C44.3056 321.139 48.8571 321.568 51.3776 322.743L51.3955 320.654C51.3955 320.654 50.002 320.146 48.0049 320.119C44.9411 320.08 42.9601 320.926 42.0319 322.65C40.6685 325.194 41.8757 327.112 46.239 329.252C48.6885 330.453 49.7712 331.496 49.7712 332.634C49.7712 334.983 46.411 335.803 42.9443 334.329C42.2309 334.03 41.6273 333.78 41.5953 333.78C41.471 334.446 41.5351 336.039 41.5351 336.039C41.5351 336.039 42.6002 336.416 44.1976 336.676C48.1595 337.342 51.7648 335.776 52.1056 333.232C52.4021 330.844 51.3777 329.591 47.4956 327.636L47.4955 327.638ZM143.959 324.66C143.494 324.66 143.001 324.714 142.486 324.805C139.3 325.508 137.505 328.082 137.627 330.73C137.627 332.945 138.137 334.043 139.406 335.204C142.007 337.004 144.359 337.149 147.548 336.183C148.088 335.988 148.676 335.767 148.676 335.767V333.966L147.547 334.462C144.973 335.402 143.038 335.402 141.494 334.292C140.5 333.445 140.068 332.439 139.868 331.265H149.464V329.723C149.464 326.596 147.22 324.611 143.954 324.663L143.959 324.66ZM140.072 329.672C140.072 329.672 140.43 327.715 141.746 326.931C142.378 326.553 143.105 326.37 143.817 326.37C144.527 326.37 145.243 326.564 145.83 326.945C147.037 327.727 147.24 329.659 147.24 329.659H140.074L140.072 329.672ZM96.3761 327.663C93.7917 326.346 92.6484 325.391 92.7869 324.269C93.188 321.163 97.7395 321.594 100.26 322.768L100.278 320.68C100.278 320.68 98.8844 320.171 96.8873 320.147C93.8235 320.108 91.8425 320.955 90.9126 322.679C89.5511 325.222 90.7741 327.141 95.123 329.28C97.5692 330.48 98.6519 331.51 98.6519 332.647C98.6519 334.996 95.2934 335.83 91.8267 334.342C91.1166 334.043 90.5132 333.796 90.4777 333.796C90.3533 334.462 90.4174 336.056 90.4174 336.056C90.4174 336.056 91.4699 336.419 93.0622 336.693C97.0277 337.36 100.635 335.795 100.974 333.251C101.269 330.875 100.246 329.623 96.3762 327.666L96.3761 327.663ZM157.966 324.765C156.589 324.765 155.522 325.236 154.825 326.162L154.267 326.892V324.989H151.883V336.418H154.265V332.764C154.265 329.424 154.313 329.032 154.869 328.119C155.632 326.867 156.946 326.24 158.215 326.541L159.067 326.75V324.765L157.966 324.765ZM77.4182 327.597V320.316H75.0149V336.443H85.1223V334.538H77.4183L77.4182 327.597ZM133 329.867L131.019 334.212L129.114 329.843L127.179 325.001H124.719C126.313 328.811 128.047 332.686 129.796 336.443C130.554 336.458 131.313 336.443 132.071 336.443L134.746 330.781L137.471 325.002H135.119C135.119 325.002 134.081 327.298 132.998 329.868L133 329.867ZM82.9565 315.921C83.3435 315.921 83.6665 315.817 83.9328 315.592C84.1954 315.371 84.3339 315.11 84.3339 314.784C84.3339 314.458 84.1954 314.186 83.9328 313.976C83.6665 313.767 83.3594 313.662 82.9742 313.662C82.5838 313.662 82.2606 313.767 81.9979 313.988C81.7317 314.21 81.6109 314.482 81.6109 314.796C81.6109 315.125 81.7353 315.398 81.9979 315.604C82.2465 315.814 82.5695 315.918 82.9565 315.918V315.921ZM82.1045 314.066C82.3352 313.871 82.6157 313.782 82.9742 313.782C83.3116 313.782 83.5921 313.871 83.8264 314.066C84.0572 314.26 84.1815 314.497 84.1815 314.784C84.1815 315.071 84.0572 315.32 83.8264 315.514C83.5922 315.709 83.3116 315.802 82.9742 315.802C82.6317 315.802 82.3529 315.712 82.1223 315.514C81.8915 315.32 81.7673 315.071 81.7673 314.784C81.7673 314.497 81.8738 314.261 82.1045 314.066ZM82.6777 314.889H82.8339C82.9441 314.889 83.0523 314.979 83.1446 315.149L83.3311 315.502H83.6239L83.3933 315.11C83.2992 314.953 83.207 314.862 83.0986 314.836C83.2353 314.809 83.3435 314.771 83.4217 314.693C83.4996 314.625 83.5281 314.534 83.5281 314.431C83.5281 314.311 83.4837 314.221 83.3897 314.156C83.2832 314.081 83.1127 314.04 82.8925 314.04H82.3993V315.502H82.6477V314.889L82.6777 314.889ZM82.6777 314.21H82.8944C83.0506 314.21 83.1607 314.236 83.221 314.275C83.2796 314.314 83.2956 314.365 83.2956 314.458C83.2956 314.627 83.1712 314.706 82.9406 314.706H82.6744V314.21H82.6777ZM42.976 314.759C42.976 314.25 42.9583 313.871 42.9441 313.648H42.9583C43.0204 313.912 43.0968 314.108 43.1589 314.238L45.4664 318.583H45.8534L48.161 314.199C48.2232 314.08 48.2854 313.9 48.3617 313.65H48.3793C48.3333 314.084 48.3173 314.461 48.3173 314.762V318.597H49.107V312.896H48.1166L45.9954 316.861C45.9173 317.018 45.809 317.253 45.6706 317.564H45.6385C45.5924 317.41 45.4841 317.175 45.3297 316.888L43.2563 312.882H42.2038V318.583H42.9635V314.762L42.976 314.759ZM50.8379 314.769H51.5197V318.32H50.8379V314.769ZM51.1787 313.467C51.3208 313.467 51.4415 313.427 51.5338 313.348C51.6279 313.27 51.6901 313.168 51.6901 313.049C51.6901 312.932 51.6439 312.827 51.5356 312.749C51.4398 312.67 51.3172 312.629 51.177 312.629C51.0387 312.629 50.9144 312.67 50.8219 312.749C50.7281 312.827 50.6658 312.932 50.6658 313.049C50.6658 313.179 50.7138 313.27 50.8219 313.348C50.9287 313.427 51.0386 313.467 51.177 313.467H51.1787ZM56.3799 318.398V317.772C56.007 318.007 55.6059 318.124 55.1905 318.124C54.6937 318.124 54.2905 317.98 53.9958 317.705C53.703 317.433 53.5468 317.054 53.5468 316.583C53.5468 316.089 53.703 315.697 54.026 315.398C54.3367 315.11 54.7397 314.967 55.2332 314.967C55.6361 314.967 56.0229 315.072 56.38 315.281V314.615C56.0552 314.472 55.6842 314.406 55.2652 314.406C54.4911 314.406 53.8878 314.615 53.4369 315.019C52.9895 315.423 52.7587 315.973 52.7587 316.635C52.7587 317.225 52.9593 317.72 53.3766 318.099C53.8114 318.488 54.3672 318.685 55.0487 318.685C55.5757 318.673 56.007 318.58 56.3799 318.398ZM58.3306 316.505C58.3306 316.037 58.4549 315.658 58.6856 315.398C58.9023 315.163 59.1649 315.045 59.4755 315.045C59.7383 315.045 59.9246 315.085 60.0612 315.176V314.497C59.9548 314.458 59.8003 314.445 59.5998 314.445C59.3211 314.445 59.0727 314.524 58.8543 314.669C58.6236 314.823 58.439 315.058 58.3307 315.357H58.313V314.524H57.5409V318.594H58.3147V316.505H58.3306ZM62.7737 318.675C63.5015 318.675 64.0873 318.477 64.5221 318.085C64.9551 317.696 65.1717 317.172 65.1717 316.52C65.1717 315.854 64.9731 315.345 64.5683 314.967C64.1672 314.588 63.6097 314.405 62.8818 314.405C62.1539 314.405 61.5682 314.588 61.1334 314.941C60.6683 315.33 60.4233 315.879 60.4233 316.584C60.4233 317.198 60.6222 317.707 61.0412 318.085C61.4742 318.477 62.0476 318.673 62.7737 318.673V318.675ZM61.6731 315.359C61.9678 315.097 62.3549 314.967 62.834 314.967C63.3312 314.967 63.7039 315.097 63.9808 315.359C64.2594 315.633 64.398 316.023 64.398 316.545C64.398 317.042 64.2737 317.433 64.0109 317.694C63.7483 317.968 63.3613 318.113 62.85 318.113C62.353 318.113 61.9678 317.968 61.6731 317.694C61.3803 317.419 61.24 317.042 61.24 316.545C61.2099 316.052 61.3644 315.648 61.6731 315.359ZM68.5606 318.32C68.8552 318.099 69.0115 317.826 69.0115 317.485C69.0115 317.186 68.8871 316.937 68.6564 316.741C68.4682 316.584 68.1773 316.442 67.7565 316.298C67.3836 316.167 67.1529 316.05 67.0286 315.959C66.9044 315.854 66.828 315.724 66.828 315.54C66.828 315.371 66.9062 315.241 67.0589 315.136C67.2151 315.031 67.4139 314.98 67.6802 314.98C68.0974 314.98 68.4541 315.073 68.7806 315.269V314.617C68.4683 314.485 68.1292 314.422 67.7422 314.422C67.2452 314.422 66.8263 314.538 66.5173 314.76C66.1924 314.982 66.0381 315.269 66.0381 315.607C66.0381 315.906 66.1445 316.155 66.3468 316.337C66.5172 316.493 66.8085 316.652 67.2131 316.794C67.6002 316.937 67.8628 317.068 68.003 317.172C68.1414 317.277 68.2035 317.407 68.2035 317.561C68.2035 317.941 67.8948 318.137 67.2912 318.137C66.8261 318.137 66.4091 318.009 66.0361 317.748V318.452C66.3734 318.622 66.7782 318.7 67.2254 318.7C67.7988 318.675 68.2478 318.556 68.5567 318.321L68.5606 318.32ZM72.2457 314.406C71.5177 314.406 70.932 314.588 70.4971 314.941C70.0356 315.33 69.7871 315.88 69.7871 316.584C69.7871 317.198 69.9878 317.707 70.4049 318.085C70.8398 318.477 71.4113 318.673 72.1392 318.673C72.8846 318.673 73.4528 318.476 73.8876 318.084C74.3225 317.695 74.539 317.171 74.539 316.518C74.539 315.853 74.3367 315.344 73.9354 314.965C73.5167 314.587 72.9591 314.404 72.2491 314.404L72.2457 314.406ZM73.7473 316.545C73.7473 317.042 73.6231 317.433 73.3604 317.695C73.0976 317.968 72.7106 318.113 72.1993 318.113C71.7021 318.113 71.3171 317.968 71.0223 317.695C70.7295 317.419 70.5893 317.042 70.5893 316.545C70.5893 316.022 70.7439 315.618 71.0545 315.345C71.3472 315.085 71.7344 314.953 72.2154 314.953C72.6946 314.953 73.0799 315.085 73.3584 315.345C73.607 315.633 73.7455 316.023 73.7455 316.545H73.7473ZM75.8385 318.582H76.6107V315.058H77.7413V314.51H76.6106V313.882C76.6106 313.31 76.8732 313.023 77.4164 313.023C77.5993 313.023 77.7857 313.062 77.9242 313.128V312.54C77.7857 312.488 77.5993 312.476 77.3666 312.476C76.9495 312.476 76.6088 312.58 76.33 312.802C76.0051 313.062 75.833 313.4 75.833 313.858V314.526H75.0163V315.073H75.833V318.584L75.8385 318.582ZM79.0104 317.472C79.0104 318.268 79.4277 318.673 80.2797 318.673C80.5886 318.673 80.8211 318.631 81.0075 318.538V317.979C80.8655 318.069 80.6968 318.111 80.5105 318.111C80.2479 318.111 80.0633 318.058 79.9549 317.94C79.8448 317.823 79.7827 317.626 79.7827 317.353V315.057H81.0074V314.509H79.7827V313.309C79.5165 313.387 79.2556 313.453 79.0087 313.518V314.509H78.1744V315.056H79.0087V317.47L79.0104 317.472ZM162.085 324.974C161.822 324.765 161.511 324.66 161.126 324.66C160.736 324.66 160.412 324.765 160.15 324.989C159.887 325.209 159.763 325.483 159.763 325.797C159.763 326.123 159.887 326.396 160.148 326.605C160.411 326.814 160.734 326.919 161.124 326.919C161.509 326.919 161.834 326.814 162.101 326.593C162.362 326.369 162.5 326.11 162.5 325.785C162.486 325.456 162.346 325.183 162.083 324.974L162.085 324.974ZM161.96 326.515C161.73 326.71 161.449 326.799 161.108 326.799C160.771 326.799 160.491 326.71 160.256 326.515C160.026 326.318 159.901 326.071 159.901 325.782C159.901 325.498 160.008 325.261 160.242 325.064C160.473 324.869 160.752 324.779 161.108 324.779C161.446 324.779 161.726 324.869 161.96 325.064C162.191 325.261 162.315 325.498 162.315 325.782C162.315 326.084 162.209 326.318 161.96 326.515ZM161.265 325.849C161.403 325.822 161.513 325.77 161.589 325.706C161.668 325.638 161.696 325.547 161.696 325.442C161.696 325.326 161.652 325.233 161.558 325.169C161.451 325.094 161.279 325.053 161.061 325.053H160.567V326.514H160.816V325.9H160.97C161.077 325.9 161.183 325.99 161.279 326.16L161.464 326.512H161.758L161.528 326.12C161.448 325.949 161.355 325.872 161.262 325.846L161.265 325.849ZM161.094 325.718H160.828V325.224H161.046C161.201 325.224 161.309 325.248 161.371 325.288C161.433 325.327 161.447 325.378 161.447 325.471C161.447 325.64 161.323 325.718 161.093 325.718L161.094 325.718ZM117.908 314.341H118.125V312.879H118.698V312.697H117.335V312.879H117.908L117.908 314.341ZM119.222 313.243C119.222 313.101 119.222 312.984 119.209 312.918C119.223 312.996 119.255 313.049 119.27 313.087L119.935 314.341H120.042L120.709 313.075C120.727 313.037 120.741 312.986 120.771 312.918C120.757 313.049 120.757 313.153 120.757 313.233V314.34H120.988V312.697H120.709L120.106 313.831C120.092 313.872 120.043 313.951 120.013 314.041H119.996C119.983 313.988 119.951 313.936 119.907 313.846L119.303 312.697H118.991V314.343H119.209V313.245L119.222 313.243Z" fill="white"/>
</g>
<g filter="url(#filter2_f_47_115)">
<path d="M94.0396 5.58092C97.8426 3.93418 102.157 3.93419 105.96 5.58093L177.563 36.5857C183.051 38.962 186.603 44.3707 186.603 50.3507V105.649C186.603 111.629 183.051 117.038 177.563 119.414L105.96 150.419C102.157 152.066 97.8426 152.066 94.0396 150.419L22.4371 119.414C16.9494 117.038 13.3975 111.629 13.3975 105.649V50.3507C13.3975 44.3707 16.9494 38.962 22.4371 36.5857L94.0396 5.58092Z" fill="#FF944D"/>
</g>
<g filter="url(#filter3_d_47_115)">
<path d="M103.27 92.0187C103.464 92.9961 103.561 94.7064 103.561 97.1498V116.296H98.3179V97.355C98.3179 95.2046 98.1141 93.598 97.7064 92.5319C97.2985 91.4665 96.5752 90.6163 95.5363 89.9809C94.4974 89.3467 93.2788 89.0281 91.8806 89.0281C89.6474 89.0281 87.7201 89.7417 86.0986 91.1685C84.477 92.5955 83.6664 95.3027 83.6664 99.2902V116.296H78.4233V85.1578H83.142V89.5852C85.414 86.1643 88.6958 84.4541 92.9874 84.4541C94.8515 84.4541 96.5653 84.7912 98.1286 85.4656C99.6919 86.14 100.862 87.0245 101.639 88.1192C102.415 89.2138 102.959 90.5137 103.27 92.0187ZM154 116.488C152.524 116.8 151.204 116.957 150.039 116.957C148.136 116.957 146.66 116.654 145.611 116.048C144.563 115.442 143.825 114.645 143.397 113.658C142.97 112.672 142.756 110.594 142.756 107.428V88.6255H131.373C131.399 88.6539 131.428 88.6773 131.454 88.7056C134.076 91.5398 135.387 95.5273 135.387 100.668C135.387 100.981 135.377 101.45 135.358 102.075H112.288C112.482 105.496 113.443 108.116 115.171 109.933C116.9 111.751 119.055 112.66 121.638 112.66C123.561 112.66 125.201 112.152 126.561 111.135C127.92 110.119 128.998 108.497 129.794 106.268L135.212 106.943C134.358 110.129 132.775 112.601 130.464 114.361C128.153 116.12 125.201 117 121.609 117C117.084 117 113.497 115.597 110.846 112.792C108.195 109.988 106.87 106.053 106.87 100.991C106.87 95.7521 108.21 91.6864 110.889 88.7933C113.569 85.9005 117.045 84.4541 121.318 84.4541C121.834 84.4541 122.34 84.4766 122.833 84.5205H142.756V77.765H147.97V84.5205H153.242V88.6253H147.97V107.72C147.97 109.225 148.062 110.193 148.247 110.623C148.431 111.053 148.732 111.395 149.15 111.649C149.567 111.903 150.164 112.031 150.941 112.031C151.524 112.031 152.291 111.962 153.243 111.825L154 116.488ZM129.853 97.7363C129.619 95.1169 128.959 93.1524 127.872 91.8429C126.202 89.8098 124.036 88.7936 121.376 88.7936C118.968 88.7936 116.943 89.6048 115.303 91.2271C113.662 92.8496 112.754 95.0193 112.579 97.7363H129.853ZM70.9584 109.956C70.0108 109.956 69.2067 110.295 68.5445 110.985C67.8823 111.67 67.5542 112.499 67.5542 113.478C67.5542 114.432 67.8823 115.258 68.5445 115.954C69.2067 116.65 70.0108 117 70.9584 117C71.9303 117 72.7577 116.65 73.4382 115.954C74.1206 115.258 74.4597 114.432 74.4597 113.478C74.4597 112.523 74.1209 111.694 73.4382 110.999C72.7574 110.3 71.9303 109.956 70.9584 109.956ZM104.579 79.6464C101.86 80.8486 98.4325 81.4497 94.2964 81.4497C87.0334 81.4497 82.004 80.0423 79.2076 77.2275C79.1959 77.2157 79.1851 77.2032 79.1733 77.1916L80.4893 80.7167H66.6717L64.5345 73.6211H49.5547L47.4729 80.7167H34L50.0499 37.7333H64.4434L75.1642 66.4519L87.0142 65.7047C87.2861 67.7572 87.8394 69.3213 88.6744 70.3962C90.0339 72.1361 91.9757 73.0055 94.5002 73.0055C96.3838 73.0055 97.8355 72.5614 98.855 71.6714C99.8746 70.7819 100.384 69.7508 100.384 68.5782C100.384 67.4639 99.899 66.4668 98.928 65.5875C97.9569 64.7077 95.7042 63.8773 92.1702 63.0951C86.3834 61.786 82.2569 60.046 79.7907 57.8763C77.305 55.7064 76.0622 52.9407 76.0622 49.5785C76.0622 47.3697 76.6982 45.283 77.9703 43.3187C79.2421 41.3541 81.1551 39.8106 83.7087 38.6861C86.2622 37.5621 89.7624 37 94.2095 37C99.6663 37 103.827 38.0219 106.691 40.0639C109.555 42.1067 111.259 45.3565 111.803 49.8129L99.3652 50.5462C99.0353 48.611 98.3409 47.2036 97.2825 46.324C96.2243 45.4444 94.763 45.0048 92.8989 45.0048C91.3647 45.0048 90.2093 45.3321 89.4325 45.9869C88.6557 46.6419 88.2675 47.4383 88.2675 48.3762C88.2675 49.0608 88.5878 49.6768 89.2287 50.2233C89.85 50.7906 91.326 51.3184 93.6562 51.8066C99.4237 53.0577 103.555 54.3238 106.05 55.6035C108.546 56.8838 110.361 58.4725 111.497 60.368C112.079 61.3393 112.51 62.3706 112.794 63.4596V37.7333H134.727C139.504 37.7333 143.082 38.8766 145.461 41.1636C147.84 43.4508 149.03 46.705 149.03 50.9275C149.03 55.2667 147.733 58.6583 145.141 61.1015C142.548 63.5454 138.591 64.7665 133.271 64.7665H126.047V80.717H112.793V70.1111C112.424 71.597 111.803 73.0117 110.929 74.3546C109.414 76.6805 107.297 78.4444 104.579 79.6464ZM126.046 56.0583H129.28C131.823 56.0583 133.61 55.6139 134.639 54.724C135.669 53.8347 136.183 52.6965 136.183 51.3083C136.183 49.9595 135.737 48.8161 134.843 47.8777C133.95 46.9395 132.27 46.4703 129.804 46.4703H126.046V56.0583ZM61.7975 64.3266L57.0844 48.875L52.4199 64.3266H61.7975Z" fill="white"/>
</g>
<g filter="url(#filter4_i_47_115)">
<path d="M179.642 116.581C183.445 114.934 187.76 114.934 191.563 116.581L263.165 147.586C268.653 149.962 272.205 155.371 272.205 161.351V216.649C272.205 222.629 268.653 228.038 263.165 230.414L191.563 261.419C187.76 263.066 183.445 263.066 179.642 261.419L108.04 230.414C102.552 228.038 99 222.629 99 216.649V161.351C99 155.371 102.552 149.962 108.04 147.586L179.642 116.581Z" fill="#FDD568"/>
</g>
<g filter="url(#filter5_d_47_115)">
<path d="M246 189.011C246 181.573 236.045 174.523 220.782 170.151C224.304 155.594 222.739 144.013 215.841 140.305C214.251 139.435 212.392 139.023 210.362 139.023V144.127C211.487 144.127 212.392 144.333 213.15 144.722C216.477 146.507 217.92 153.305 216.795 162.049C216.526 164.2 216.086 166.466 215.547 168.778C210.753 167.679 205.519 166.832 200.015 166.283C196.713 162.049 193.289 158.203 189.84 154.839C197.814 147.904 205.299 144.104 210.386 144.104V139C203.66 139 194.854 143.486 185.951 151.268C177.048 143.532 168.242 139.091 161.516 139.091V144.196C166.579 144.196 174.088 147.972 182.062 154.862C178.638 158.226 175.213 162.049 171.96 166.283C166.432 166.832 161.198 167.679 156.404 168.801C155.841 166.512 155.425 164.292 155.132 162.163C153.982 153.42 155.401 146.622 158.703 144.814C159.437 144.402 160.391 144.219 161.516 144.219V139.114C159.461 139.114 157.602 139.526 155.988 140.396C149.115 144.104 147.574 155.663 151.12 170.174C135.906 174.569 126 181.595 126 189.011C126 196.45 135.955 203.5 151.218 207.872C147.696 222.429 149.261 234.01 156.159 237.718C157.749 238.588 159.608 239 161.662 239C168.389 239 177.194 234.514 186.098 226.732C195.001 234.468 203.807 238.908 210.533 238.908C212.588 238.908 214.447 238.496 216.061 237.627C222.934 233.919 224.475 222.36 220.929 207.849C236.094 203.477 246 196.427 246 189.011ZM214.153 173.745C213.248 176.697 212.123 179.742 210.851 182.786C209.848 180.955 208.797 179.124 207.647 177.292C206.522 175.461 205.323 173.676 204.125 171.937C207.598 172.417 210.949 173.012 214.153 173.745ZM202.951 198.121C201.043 201.211 199.086 204.141 197.056 206.864C193.411 207.162 189.718 207.322 186 207.322C182.307 207.322 178.613 207.162 174.993 206.887C172.963 204.164 170.982 201.257 169.074 198.19C167.215 195.191 165.527 192.147 163.986 189.08C165.503 186.013 167.215 182.946 169.049 179.948C170.957 176.858 172.914 173.928 174.944 171.204C178.589 170.907 182.282 170.746 186 170.746C189.693 170.746 193.387 170.907 197.007 171.181C199.037 173.905 201.018 176.812 202.926 179.879C204.785 182.877 206.473 185.921 208.014 188.988C206.473 192.056 204.785 195.123 202.951 198.121ZM210.851 195.146C212.172 198.213 213.297 201.28 214.227 204.255C211.022 204.988 207.647 205.606 204.149 206.086C205.348 204.324 206.546 202.516 207.671 200.662C208.797 198.831 209.848 196.977 210.851 195.146ZM186.049 219.568C183.774 217.37 181.499 214.921 179.249 212.243C181.45 212.335 183.701 212.403 185.976 212.403C188.275 212.403 190.55 212.358 192.775 212.243C190.574 214.921 188.299 217.37 186.049 219.568ZM167.851 206.086C164.377 205.606 161.026 205.01 157.822 204.278C158.727 201.325 159.852 198.281 161.124 195.237C162.127 197.068 163.179 198.899 164.329 200.73C165.478 202.561 166.652 204.347 167.851 206.086ZM185.927 158.455C188.201 160.652 190.476 163.102 192.726 165.78C190.525 165.688 188.275 165.619 186 165.619C183.701 165.619 181.426 165.665 179.2 165.78C181.402 163.102 183.676 160.652 185.927 158.455ZM167.826 171.937C166.628 173.699 165.429 175.507 164.304 177.361C163.179 179.192 162.127 181.023 161.124 182.854C159.804 179.787 158.678 176.72 157.749 173.745C160.953 173.035 164.329 172.417 167.826 171.937ZM145.69 200.593C137.031 197.137 131.43 192.605 131.43 189.011C131.43 185.418 137.031 180.863 145.69 177.43C147.794 176.583 150.093 175.828 152.466 175.118C153.86 179.604 155.694 184.273 157.969 189.057C155.719 193.818 153.909 198.464 152.539 202.928C150.117 202.218 147.818 201.44 145.69 200.593ZM158.85 233.301C155.523 231.515 154.08 224.717 155.205 215.974C155.474 213.823 155.914 211.557 156.453 209.245C161.247 210.343 166.481 211.19 171.985 211.74C175.287 215.974 178.711 219.819 182.16 223.184C174.186 230.119 166.701 233.919 161.614 233.919C160.513 233.896 159.583 233.69 158.85 233.301ZM216.868 215.86C218.018 224.603 216.599 231.401 213.297 233.209C212.563 233.621 211.609 233.804 210.484 233.804C205.421 233.804 197.912 230.028 189.938 223.138C193.362 219.774 196.787 215.951 200.04 211.717C205.568 211.167 210.802 210.321 215.596 209.199C216.159 211.511 216.599 213.731 216.868 215.86ZM226.285 200.593C224.182 201.44 221.883 202.195 219.51 202.905C218.116 198.419 216.281 193.749 214.007 188.966C216.257 184.205 218.067 179.558 219.437 175.095C221.858 175.805 224.157 176.583 226.31 177.43C234.969 180.886 240.57 185.418 240.57 189.011C240.545 192.605 234.944 197.16 226.285 200.593Z" fill="#61DAFB"/>
<path d="M185.976 199.471C192.149 199.471 197.154 194.788 197.154 189.011C197.154 183.234 192.149 178.551 185.976 178.551C179.802 178.551 174.797 183.234 174.797 189.011C174.797 194.788 179.802 199.471 185.976 199.471Z" fill="#61DAFB"/>
</g>
<defs>
<filter id="filter0_f_47_115" x="11" y="223.346" width="181.205" height="155.308" filterUnits="userSpaceOnUse" color-interpolation-filters="sRGB">
<feFlood flood-opacity="0" result="BackgroundImageFix"/>
<feBlend mode="normal" in="SourceGraphic" in2="BackgroundImageFix" result="shape"/>
<feGaussianBlur stdDeviation="2" result="effect1_foregroundBlur_47_115"/>
</filter>
<filter id="filter1_d_47_115" x="37" y="250.5" width="138" height="108" filterUnits="userSpaceOnUse" color-interpolation-filters="sRGB">
<feFlood flood-opacity="0" result="BackgroundImageFix"/>
<feColorMatrix in="SourceAlpha" type="matrix" values="0 0 0 0 0 0 0 0 0 0 0 0 0 0 0 0 0 0 127 0" result="hardAlpha"/>
<feOffset dx="4" dy="4"/>
<feGaussianBlur stdDeviation="2"/>
<feComposite in2="hardAlpha" operator="out"/>
<feColorMatrix type="matrix" values="0 0 0 0 0 0 0 0 0 0 0 0 0 0 0 0 0 0 0.25 0"/>
<feBlend mode="normal" in2="BackgroundImageFix" result="effect1_dropShadow_47_115"/>
<feBlend mode="normal" in="SourceGraphic" in2="effect1_dropShadow_47_115" result="shape"/>
</filter>
<filter id="filter2_f_47_115" x="9.39746" y="0.345886" width="181.205" height="155.308" filterUnits="userSpaceOnUse" color-interpolation-filters="sRGB">
<feFlood flood-opacity="0" result="BackgroundImageFix"/>
<feBlend mode="normal" in="SourceGraphic" in2="BackgroundImageFix" result="shape"/>
<feGaussianBlur stdDeviation="2" result="effect1_foregroundBlur_47_115"/>
</filter>
<filter id="filter3_d_47_115" x="34" y="37" width="128" height="88" filterUnits="userSpaceOnUse" color-interpolation-filters="sRGB">
<feFlood flood-opacity="0" result="BackgroundImageFix"/>
<feColorMatrix in="SourceAlpha" type="matrix" values="0 0 0 0 0 0 0 0 0 0 0 0 0 0 0 0 0 0 127 0" result="hardAlpha"/>
<feOffset dx="4" dy="4"/>
<feGaussianBlur stdDeviation="2"/>
<feComposite in2="hardAlpha" operator="out"/>
<feColorMatrix type="matrix" values="0 0 0 0 0 0 0 0 0 0 0 0 0 0 0 0 0 0 0.25 0"/>
<feBlend mode="normal" in2="BackgroundImageFix" result="effect1_dropShadow_47_115"/>
<feBlend mode="normal" in="SourceGraphic" in2="effect1_dropShadow_47_115" result="shape"/>
</filter>
<filter id="filter4_i_47_115" x="99" y="115.346" width="177.205" height="151.308" filterUnits="userSpaceOnUse" color-interpolation-filters="sRGB">
<feFlood flood-opacity="0" result="BackgroundImageFix"/>
<feBlend mode="normal" in="SourceGraphic" in2="BackgroundImageFix" result="shape"/>
<feColorMatrix in="SourceAlpha" type="matrix" values="0 0 0 0 0 0 0 0 0 0 0 0 0 0 0 0 0 0 127 0" result="hardAlpha"/>
<feOffset dx="5" dy="5"/>
<feGaussianBlur stdDeviation="2"/>
<feComposite in2="hardAlpha" operator="arithmetic" k2="-1" k3="1"/>
<feColorMatrix type="matrix" values="0 0 0 0 0 0 0 0 0 0 0 0 0 0 0 0 0 0 0.25 0"/>
<feBlend mode="normal" in2="shape" result="effect1_innerShadow_47_115"/>
</filter>
<filter id="filter5_d_47_115" x="126" y="139" width="128" height="108" filterUnits="userSpaceOnUse" color-interpolation-filters="sRGB">
<feFlood flood-opacity="0" result="BackgroundImageFix"/>
<feColorMatrix in="SourceAlpha" type="matrix" values="0 0 0 0 0 0 0 0 0 0 0 0 0 0 0 0 0 0 127 0" result="hardAlpha"/>
<feOffset dx="4" dy="4"/>
<feGaussianBlur stdDeviation="2"/>
<feComposite in2="hardAlpha" operator="out"/>
<feColorMatrix type="matrix" values="0 0 0 0 0 0 0 0 0 0 0 0 0 0 0 0 0 0 0.25 0"/>
<feBlend mode="normal" in2="BackgroundImageFix" result="effect1_dropShadow_47_115"/>
<feBlend mode="normal" in="SourceGraphic" in2="effect1_dropShadow_47_115" result="shape"/>
</filter>
<linearGradient id="paint0_linear_47_115" x1="81.6532" y1="306.345" x2="86.2861" y2="303.409" gradientUnits="userSpaceOnUse">
<stop stop-color="#909CA9"/>
<stop offset="1" stop-color="#EDEDEE"/>
</linearGradient>
<linearGradient id="paint1_linear_47_115" x1="81.7633" y1="256.35" x2="85.6358" y2="256.35" gradientUnits="userSpaceOnUse">
<stop stop-color="#939FAB"/>
<stop offset="1" stop-color="#DCDEE1"/>
</linearGradient>
<radialGradient id="paint2_radial_47_115" cx="0" cy="0" r="1" gradientUnits="userSpaceOnUse" gradientTransform="translate(101.304 272.912) rotate(-172.026) scale(4.98545 9.32722)">
<stop stop-color="#EE352C"/>
<stop offset="1" stop-color="#A91D22"/>
</radialGradient>
</defs>
</svg>
